# xmcd CD database file
#
# Track frame offsets:
#	150
#	11240
#	26075
#	39652
#	57357
#	96812
#	120007
#	136877
#	156767
#	170937
#
# Disc length: 2520 seconds
#
# Revision: 2
# Processed by: cddbd v1.5.2PL0 Copyright (c) Steve Scherf et al.
# Submitted via: CDex 1.70beta3
#
DISCID=8009d60a
DTITLE=Cheap Trick - Cheap Trick At Budokan
DYEAR=1978
DGENRE=Melodic Hard Rock
TTITLE0=Hello There
TTITLE1=Come On, Come On
TTITLE2=Lookout
TTITLE3=Big Eyes
TTITLE4=Need Your Love
TTITLE5=Ain't That A Shame
TTITLE6=I Want You To Want Me
TTITLE7=Surrender
TTITLE8=Goodnight
TTITLE9=Clock Strikes Ten
EXTD=YEAR: 1978
EXTT0=
EXTT1=
EXTT2=
EXTT3=
EXTT4=
EXTT5=
EXTT6=
EXTT7=
EXTT8=
EXTT9=
PLAYORDER=
